<svg xmlns="http://www.w3.org/2000/svg" width="24" height="24" viewBox="0 0 24 24" fill="none"><path fill-rule="evenodd" clip-rule="evenodd" d="M24 12C24 18.6274 18.6274 24 12 24C5.37258 24 0 18.6274 0 12C0 5.37258 5.37258 0 12 0C18.6274 0 24 5.37258 24 12ZM12 18.3C11.1716 18.3 10.5 17.6284 10.5 16.8V13.5H7.2C6.37157 13.5 5.7 12.8284 5.7 12C5.7 11.1716 6.37157 10.5 7.2 10.5H10.5V7.2C10.5 6.37157 11.1716 5.7 12 5.7C12.8284 5.7 13.5 6.37157 13.5 7.2V10.5H16.8C17.6284 10.5 18.3 11.1716 18.3 12C18.3 12.8284 17.6284 13.5 16.8 13.5H13.5V16.8C13.5 17.6284 12.8284 18.3 12 18.3Z" fill="black"></path></svg>